<svg width="708" height="656" viewBox="0 0 708 656" fill="none" xmlns="http://www.w3.org/2000/svg">
<rect x="-172" width="879" height="656" rx="80" fill="url(#paint0_linear)"/>
<path d="M444 0H708V303H524C479.817 303 444 267.183 444 223V0Z" fill="#F0FAF9"/>
<mask id="mask0" mask-type="alpha" maskUnits="userSpaceOnUse" x="-172" y="0" width="879" height="656">
<rect x="-172" width="879" height="656" rx="80" fill="url(#paint1_linear)"/>
</mask>
<g mask="url(#mask0)">
<path d="M473.217 365.627C422.76 359.453 411.189 401.568 355.762 413.84C355.762 413.84 286.652 415.646 297.927 436.993C300.861 442.555 309.608 446.956 316.713 448.357C301.671 450.393 290.636 452.561 290.636 452.561C210.162 409.176 192.942 431.323 192.942 431.323L293.34 477.466C293.34 477.466 424.216 473.142 426.822 472.977C429.427 472.813 469.582 414.212 469.582 414.212L727.48 507.44L745.467 442.96C745.445 442.971 488.423 367.489 473.217 365.627Z" fill="#F58D6C"/>
<path d="M176.105 431.454C187.731 423.2 218.811 418.93 274.062 461.384C274.062 461.384 317.917 454.619 358.116 474.127C358.116 474.127 462.609 373.532 490.393 371.966C518.178 370.401 745.445 442.96 745.445 442.96L762.731 523.609L687.796 539.669L514.992 445.773C514.992 445.773 407.27 518.289 392.097 528.349C372.523 541.333 310.55 499.722 270.438 492.913C256.743 490.592 195.832 453.973 176.619 442.27C172.657 439.873 172.328 434.147 176.105 431.454Z" fill="#FFB287"/>
<path d="M525.042 505.316L567.101 386.154L765.347 444.536L790.264 536.746L681.009 558.838L525.042 505.316Z" fill="white"/>
<path d="M525.042 505.316L587.332 392.12L790.264 536.746L681.009 558.837L525.042 505.316Z" fill="#3E7C98"/>
<path d="M541.977 520.642L589.182 386.876L790.263 451.499V558.838V623L541.977 520.642Z" fill="#F1C560"/>
<path d="M582.953 507.002C583.676 512.005 580.183 516.865 575.137 517.861C570.101 518.858 565.415 515.617 564.693 510.614C563.97 505.611 567.463 500.751 572.509 499.755C577.545 498.747 582.22 501.999 582.953 507.002Z" fill="#E0AC3B"/>
<path d="M611.296 517.741C612.019 522.744 608.526 527.605 603.48 528.601C598.444 529.597 593.758 526.357 593.036 521.354C592.313 516.351 595.805 511.49 600.852 510.494C605.899 509.498 610.573 512.738 611.296 517.741Z" fill="#E0AC3B"/>
<path d="M142.694 171.126C142.694 171.126 226.693 198.505 262.699 155.985L310.55 161.82C310.55 161.82 338.367 233 366.655 224.396C378.817 220.695 363.984 206.267 330.802 143.451C330.802 143.451 285.042 109.842 211.596 106.941L142.694 171.126Z" fill="#F58D6C"/>
<path d="M-195 273.845L-7.81087 153.259C-3.31149 150.369 0.914185 147.085 4.9866 143.626C13.6788 136.225 24.3744 130.62 36.2304 127.325C90.0039 112.349 226.233 77.1533 243.07 77.0001C251.412 76.9234 308.24 138.207 322.46 155.668C325.022 158.81 326.675 162.379 327.332 166.134C330.627 185.04 340.655 244.911 336.057 249.115C330.594 254.107 306.565 255.946 290.133 170.469L230.7 148.662L212.921 175.822C212.921 175.822 147.992 237.204 65.022 200.651L-195 446.288V273.845Z" fill="#FFB287"/>
<path d="M-1.69128 149.877C-1.69128 149.877 23.4658 189.451 62.6026 202.939L43.6199 222.195L-8.92749 156.73L-1.69128 149.877Z" fill="#F58D6C"/>
<path d="M80.3702 264.999L-2.69846 149.11L-175.59 266.904L-172.514 395.656L-72.4442 382.224L80.3702 264.999Z" fill="white"/>
<path d="M80.3701 264.999L-22.8307 163.232L-185.213 397.364L-72.4442 382.224L80.3701 264.999Z" fill="#3E7C98"/>
<path d="M69.3024 287.277L-23.9473 157.179L-195 265.514V487.187L69.3024 287.277Z" fill="#3D6DD5"/>
<path d="M28.2169 288.328C28.7424 292.247 32.3441 295.006 36.2742 294.48C40.1933 293.955 42.9521 290.342 42.4266 286.423C41.9011 282.504 38.2994 279.745 34.3693 280.271C30.4502 280.796 27.6914 284.398 28.2169 288.328Z" fill="#1C53CC"/>
<path d="M23.0405 305.965C24.9117 302.474 23.5993 298.128 20.1092 296.257C16.6191 294.386 12.2729 295.698 10.4017 299.188C8.53056 302.679 9.84296 307.025 13.3331 308.896C16.8232 310.767 21.1693 309.455 23.0405 305.965Z" fill="#1C53CC"/>
<path d="M218.581 176.961L208.717 162.718C208.039 162.094 208.039 158.503 210.907 159.707C217.267 162.401 216.709 171.126 230.7 149.745L218.581 176.961Z" fill="#F58D6C"/>
<path d="M341.706 270.309C341.848 264.912 340.425 259.405 337.305 254.512C328.985 241.463 311.699 237.653 298.694 245.995C285.688 254.337 281.89 271.677 290.199 284.716C296.132 294.021 306.642 298.63 316.899 297.48" stroke="#DFEDED" stroke-width="3.0716" stroke-miterlimit="10"/>
<path d="M287.462 306.37L286.892 315.839C286.236 326.819 294.829 336.924 306.094 338.402L313.188 339.332C324.453 340.81 334.13 333.103 334.787 322.123L335.356 312.653C336.013 301.673 327.42 291.569 316.155 290.091L308.842 285.92C297.577 284.442 288.119 295.378 287.462 306.37ZM312.761 294.054C320.162 295.028 319.592 304.487 312.192 303.523C304.791 302.549 305.361 293.09 312.761 294.054Z" fill="#063145"/>
<path d="M322.209 316.594L319.395 363.405L325.635 364.095L323.818 367.773L318.946 370.915L318.881 372.01L324.891 372.415L323.293 376.378L318.421 379.52L318.355 380.614L324.365 381.02L322.778 384.982L319.362 387.183L317.742 390.839L306.061 400.101L296.099 388.004L299.318 334.515L301.77 330.443L322.209 316.594Z" fill="#819DA5"/>
<path d="M319.636 384.304L319.461 387.019L307.78 396.28L297.818 384.183L299.416 357.713L299.811 351.155L302.296 309.938L323.928 312.774L321.661 350.684L321.256 357.231L321.125 359.585L325.537 363.953L320.654 367.094L320.6 368.189L325.011 372.557L320.14 375.71L320.074 376.794L324.497 381.162L319.636 384.304Z" fill="#C8D6D6"/>
<path d="M321.256 357.297C313.965 358.632 306.696 359.902 299.416 361.095L299.81 354.483C307.09 353.279 314.381 352.009 321.661 350.684L321.256 357.297Z" fill="#D4E8E7"/>
<path d="M306.74 389.635L302.723 382.465L306.926 312.511L311.349 313.091L306.74 389.635Z" fill="#819DA5"/>
<path d="M337.404 317.765L337.973 308.296C338.641 297.316 330.036 287.222 318.771 285.733L311.666 284.803C300.785 283.38 291.381 290.528 290.166 300.928C290.122 301.29 290.089 301.651 290.067 302.012L289.498 311.482C289.17 316.868 291.074 322.046 294.446 326.096C297.927 330.3 302.963 333.289 308.7 334.044L315.804 334.975C327.069 336.453 336.736 328.746 337.404 317.765ZM314.578 302.844C307.167 301.881 307.846 290.693 315.246 291.656C322.658 292.63 321.979 303.819 314.578 302.844Z" fill="#397591"/>
<path d="M314.688 304.18C318.574 304.695 321.902 302.035 322.132 298.247C322.362 294.459 319.395 290.978 315.509 290.463" stroke="#102333" stroke-width="2.895" stroke-miterlimit="10"/>
<path d="M296.636 329.107C299.931 331.647 304.124 333.453 308.743 334.055L315.837 334.986C320.14 335.555 324.201 334.997 327.606 333.595" stroke="#254C5E" stroke-width="1.1768" stroke-miterlimit="10"/>
<path d="M315.52 290.474C311.634 289.959 308.306 292.62 308.076 296.407C307.846 300.195 310.812 303.676 314.699 304.191" stroke="#254C5E" stroke-width="2.895" stroke-miterlimit="10"/>
<path d="M309.992 308.023L311.984 317.306C314.294 328.067 325.274 335.49 336.528 333.891L343.611 332.884C354.865 331.286 364.553 320.535 362.09 307.399L357.832 301.246C355.522 290.485 344.541 283.063 333.288 284.661L325.132 282.603C313.856 284.179 307.682 297.261 309.992 308.023ZM331.065 289.379C338.455 288.328 340.447 297.601 333.047 298.652C325.657 299.703 323.665 290.43 331.065 289.379Z" fill="#063145"/>
<path d="M346.939 307.837L356.759 353.684L362.955 352.688L362.189 356.717L358.335 361.052L358.565 362.114L364.466 360.899L363.995 365.146L360.141 369.481L360.371 370.543L366.272 369.328L365.801 373.565L363.108 376.608L362.517 380.56L353.759 392.613L340.907 383.625L329.686 331.231L330.945 326.655L346.939 307.837Z" fill="#819DA5"/>
<path d="M362.594 373.761L363.152 376.422L354.383 388.475L341.542 379.487L335.991 353.553L334.612 347.137L325.964 306.763L347.574 303.687L355.532 340.832L356.901 347.236L357.404 349.546L362.823 352.567L358.97 356.902L359.2 357.975L364.63 360.997L360.776 365.343L361.006 366.405L366.436 369.437L362.594 373.761Z" fill="#C8D6D6"/>
<path d="M356.901 347.236C349.938 349.404 342.976 351.505 335.991 353.553L334.612 347.137C341.596 345.101 348.581 342.988 355.533 340.832L356.901 347.236Z" fill="#D4E8E7"/>
<path d="M351.591 382.355L345.8 376.52L331.12 308.001L335.532 307.377L351.591 382.355Z" fill="#819DA5"/>
<path d="M361.882 304.891L359.89 295.608C357.591 284.847 346.6 277.425 335.346 279.012L328.252 280.019C317.381 281.563 310.243 290.966 311.853 301.312C311.907 301.662 311.973 302.023 312.05 302.385L314.042 311.668C315.17 316.945 318.388 321.433 322.723 324.422C327.201 327.542 332.861 329.074 338.586 328.264L345.68 327.257C356.934 325.67 364.192 315.653 361.882 304.891ZM337.448 295.958C330.627 299.002 325.351 289.116 332.171 286.073C338.991 283.03 344.268 292.926 337.448 295.958Z" fill="#397591"/>
<path d="M336.364 297.885C340.239 297.338 342.746 293.879 341.947 290.178C341.148 286.467 337.36 283.905 333.484 284.453" stroke="#254C5E" stroke-width="2.895" stroke-miterlimit="10"/>
<path d="M325.657 326.743C329.51 328.308 334.032 328.921 338.641 328.265L345.724 327.257C350.026 326.644 353.781 325.024 356.682 322.758" stroke="#254C5E" stroke-width="1.1768" stroke-miterlimit="10"/>
<path d="M327.42 292.893C336.002 290.572 341.498 278.267 341.706 270.32" stroke="#DFEDED" stroke-width="3.0716" stroke-miterlimit="10"/>
<path d="M333.485 284.453C329.609 285 327.102 288.46 327.901 292.16C328.701 295.871 332.488 298.433 336.364 297.874" stroke="#254C5E" stroke-width="2.895" stroke-miterlimit="10"/>
<path d="M49.0715 197.191C49.0715 197.191 97.9734 215.079 155.71 217.783C188.224 219.305 220.037 227.154 249.365 240.236C256.645 243.477 263.64 246.618 269.574 249.29C295.738 261.08 312.246 283.522 323.402 264.036C334.557 244.549 294.468 217.871 259.962 205.347C225.467 192.834 206.396 138.645 206.396 138.645L49.0715 197.191Z" fill="#FFB287"/>
</g>
<path d="M444 0H404C404 0 419.5 0.5 430 9.5C443.518 21.087 444 39.5 444 39.5V0Z" fill="#F0FAF9"/>
<path d="M707 303H667C667 303 682.5 303.5 693 312.5C706.518 324.087 707 342.5 707 342.5V303Z" fill="#F0FAF9"/>
<path d="M544.078 83.9688C544.078 90.1562 541.844 95.0312 537.375 98.5938C532.938 102.156 526.75 103.938 518.812 103.938C511.5 103.938 505.031 102.562 499.406 99.8125V86.3125C504.031 88.375 507.938 89.8281 511.125 90.6719C514.344 91.5156 517.281 91.9375 519.938 91.9375C523.125 91.9375 525.562 91.3281 527.25 90.1094C528.969 88.8906 529.828 87.0781 529.828 84.6719C529.828 83.3281 529.453 82.1406 528.703 81.1094C527.953 80.0469 526.844 79.0312 525.375 78.0625C523.938 77.0938 520.984 75.5469 516.516 73.4219C512.328 71.4531 509.188 69.5625 507.094 67.75C505 65.9375 503.328 63.8281 502.078 61.4219C500.828 59.0156 500.203 56.2031 500.203 52.9844C500.203 46.9219 502.25 42.1562 506.344 38.6875C510.469 35.2188 516.156 33.4844 523.406 33.4844C526.969 33.4844 530.359 33.9062 533.578 34.75C536.828 35.5938 540.219 36.7812 543.75 38.3125L539.062 49.6094C535.406 48.1094 532.375 47.0625 529.969 46.4688C527.594 45.875 525.25 45.5781 522.938 45.5781C520.188 45.5781 518.078 46.2188 516.609 47.5C515.141 48.7812 514.406 50.4531 514.406 52.5156C514.406 53.7969 514.703 54.9219 515.297 55.8906C515.891 56.8281 516.828 57.75 518.109 58.6562C519.422 59.5312 522.5 61.125 527.344 63.4375C533.75 66.5 538.141 69.5781 540.516 72.6719C542.891 75.7344 544.078 79.5 544.078 83.9688ZM596.441 34.4688V78.8125C596.441 83.875 595.301 88.3125 593.019 92.125C590.769 95.9375 587.504 98.8594 583.222 100.891C578.941 102.922 573.879 103.938 568.035 103.938C559.222 103.938 552.379 101.688 547.504 97.1875C542.629 92.6562 540.191 86.4688 540.191 78.625V34.4688H554.676V76.4219C554.676 81.7031 555.738 85.5781 557.863 88.0469C559.988 90.5156 563.504 91.75 568.41 91.75C573.16 91.75 576.597 90.5156 578.722 88.0469C580.879 85.5469 581.957 81.6406 581.957 76.3281V34.4688H596.441ZM636.476 34.4688H651.148L627.851 103H612.007L588.757 34.4688H603.429L616.32 75.25C617.039 77.6562 617.773 80.4688 618.523 83.6875C619.304 86.875 619.789 89.0938 619.976 90.3438C620.32 87.4688 621.492 82.4375 623.492 75.25L636.476 34.4688Z" fill="#08154A"/>
<path d="M513.404 146.863C513.404 149.184 512.566 151.012 510.891 152.348C509.227 153.684 506.906 154.352 503.93 154.352C501.188 154.352 498.762 153.836 496.652 152.805V147.742C498.387 148.516 499.852 149.061 501.047 149.377C502.254 149.693 503.355 149.852 504.352 149.852C505.547 149.852 506.461 149.623 507.094 149.166C507.738 148.709 508.061 148.029 508.061 147.127C508.061 146.623 507.92 146.178 507.639 145.791C507.357 145.393 506.941 145.012 506.391 144.648C505.852 144.285 504.744 143.705 503.068 142.908C501.498 142.17 500.32 141.461 499.535 140.781C498.75 140.102 498.123 139.311 497.654 138.408C497.186 137.506 496.951 136.451 496.951 135.244C496.951 132.971 497.719 131.184 499.254 129.883C500.801 128.582 502.934 127.932 505.652 127.932C506.988 127.932 508.26 128.09 509.467 128.406C510.686 128.723 511.957 129.168 513.281 129.742L511.523 133.979C510.152 133.416 509.016 133.023 508.113 132.801C507.223 132.578 506.344 132.467 505.477 132.467C504.445 132.467 503.654 132.707 503.104 133.188C502.553 133.668 502.277 134.295 502.277 135.068C502.277 135.549 502.389 135.971 502.611 136.334C502.834 136.686 503.186 137.031 503.666 137.371C504.158 137.699 505.312 138.297 507.129 139.164C509.531 140.312 511.178 141.467 512.068 142.627C512.959 143.775 513.404 145.188 513.404 146.863ZM535.781 154H530.42V142.521C530.42 139.686 529.365 138.268 527.256 138.268C525.756 138.268 524.672 138.777 524.004 139.797C523.336 140.816 523.002 142.469 523.002 144.754V154H517.641V126.648H523.002V132.221C523.002 132.654 522.961 133.674 522.879 135.279L522.756 136.861H523.037C524.232 134.939 526.131 133.979 528.732 133.979C531.041 133.979 532.793 134.6 533.988 135.842C535.184 137.084 535.781 138.865 535.781 141.186V154ZM545.572 144.139C545.572 146.084 545.889 147.555 546.521 148.551C547.166 149.547 548.209 150.045 549.65 150.045C551.08 150.045 552.105 149.553 552.727 148.568C553.359 147.572 553.676 146.096 553.676 144.139C553.676 142.193 553.359 140.734 552.727 139.762C552.094 138.789 551.057 138.303 549.615 138.303C548.186 138.303 547.154 138.789 546.521 139.762C545.889 140.723 545.572 142.182 545.572 144.139ZM559.16 144.139C559.16 147.338 558.316 149.84 556.629 151.645C554.941 153.449 552.592 154.352 549.58 154.352C547.693 154.352 546.029 153.941 544.588 153.121C543.146 152.289 542.039 151.1 541.266 149.553C540.492 148.006 540.105 146.201 540.105 144.139C540.105 140.928 540.943 138.432 542.619 136.65C544.295 134.869 546.65 133.979 549.686 133.979C551.572 133.979 553.236 134.389 554.678 135.209C556.119 136.029 557.227 137.207 558 138.742C558.773 140.277 559.16 142.076 559.16 144.139ZM574.383 154.352C572.074 154.352 570.264 153.514 568.951 151.838H568.67C568.857 153.479 568.951 154.428 568.951 154.686V162.648H563.59V134.348H567.949L568.705 136.896H568.951C570.205 134.951 572.062 133.979 574.523 133.979C576.844 133.979 578.66 134.875 579.973 136.668C581.285 138.461 581.941 140.951 581.941 144.139C581.941 146.236 581.631 148.059 581.01 149.605C580.4 151.152 579.527 152.33 578.391 153.139C577.254 153.947 575.918 154.352 574.383 154.352ZM572.801 138.268C571.477 138.268 570.51 138.678 569.9 139.498C569.291 140.307 568.975 141.648 568.951 143.523V144.104C568.951 146.213 569.262 147.725 569.883 148.639C570.516 149.553 571.512 150.01 572.871 150.01C575.273 150.01 576.475 148.029 576.475 144.068C576.475 142.135 576.176 140.688 575.578 139.727C574.992 138.754 574.066 138.268 572.801 138.268ZM519.152 177.301V193.93C519.152 195.828 518.725 197.492 517.869 198.922C517.025 200.352 515.801 201.447 514.195 202.209C512.59 202.971 510.691 203.352 508.5 203.352C505.195 203.352 502.629 202.508 500.801 200.82C498.973 199.121 498.059 196.801 498.059 193.859V177.301H503.49V193.033C503.49 195.014 503.889 196.467 504.686 197.393C505.482 198.318 506.801 198.781 508.641 198.781C510.422 198.781 511.711 198.318 512.508 197.393C513.316 196.455 513.721 194.99 513.721 192.998V177.301H519.152ZM535.992 182.979C536.719 182.979 537.322 183.031 537.803 183.137L537.398 188.164C536.965 188.047 536.438 187.988 535.816 187.988C534.105 187.988 532.77 188.428 531.809 189.307C530.859 190.186 530.385 191.416 530.385 192.998V203H525.023V183.348H529.084L529.875 186.652H530.139C530.748 185.551 531.568 184.666 532.6 183.998C533.643 183.318 534.773 182.979 535.992 182.979ZM512.895 226.301H518.396L509.66 252H503.719L495 226.301H500.502L505.336 241.594C505.605 242.496 505.881 243.551 506.162 244.758C506.455 245.953 506.637 246.785 506.707 247.254C506.836 246.176 507.275 244.289 508.025 241.594L512.895 226.301ZM529.365 235.793C528.229 235.793 527.338 236.156 526.693 236.883C526.049 237.598 525.68 238.617 525.586 239.941H533.109C533.086 238.617 532.74 237.598 532.072 236.883C531.404 236.156 530.502 235.793 529.365 235.793ZM530.121 252.352C526.957 252.352 524.484 251.479 522.703 249.732C520.922 247.986 520.031 245.514 520.031 242.314C520.031 239.021 520.852 236.479 522.492 234.686C524.145 232.881 526.424 231.979 529.33 231.979C532.107 231.979 534.27 232.77 535.816 234.352C537.363 235.934 538.137 238.119 538.137 240.908V243.51H525.463C525.521 245.033 525.973 246.223 526.816 247.078C527.66 247.934 528.844 248.361 530.367 248.361C531.551 248.361 532.67 248.238 533.725 247.992C534.779 247.746 535.881 247.354 537.029 246.814V250.963C536.092 251.432 535.09 251.777 534.023 252C532.957 252.234 531.656 252.352 530.121 252.352ZM560.637 252H555.275V240.521C555.275 237.686 554.221 236.268 552.111 236.268C550.611 236.268 549.527 236.777 548.859 237.797C548.191 238.816 547.857 240.469 547.857 242.754V252H542.496V224.648H547.857V230.221C547.857 230.654 547.816 231.674 547.734 233.279L547.611 234.861H547.893C549.088 232.939 550.986 231.979 553.588 231.979C555.896 231.979 557.648 232.6 558.844 233.842C560.039 235.084 560.637 236.865 560.637 239.186V252ZM565.928 227.268C565.928 225.521 566.9 224.648 568.846 224.648C570.791 224.648 571.764 225.521 571.764 227.268C571.764 228.1 571.518 228.75 571.025 229.219C570.545 229.676 569.818 229.904 568.846 229.904C566.9 229.904 565.928 229.025 565.928 227.268ZM571.518 252H566.156V232.348H571.518V252ZM585.141 252.352C579.023 252.352 575.965 248.994 575.965 242.279C575.965 238.939 576.797 236.391 578.461 234.633C580.125 232.863 582.51 231.979 585.615 231.979C587.889 231.979 589.928 232.424 591.732 233.314L590.15 237.463C589.307 237.123 588.521 236.848 587.795 236.637C587.068 236.414 586.342 236.303 585.615 236.303C582.826 236.303 581.432 238.283 581.432 242.244C581.432 246.088 582.826 248.01 585.615 248.01C586.646 248.01 587.602 247.875 588.48 247.605C589.359 247.324 590.238 246.891 591.117 246.305V250.893C590.25 251.443 589.371 251.824 588.48 252.035C587.602 252.246 586.488 252.352 585.141 252.352ZM601.049 252H595.688V224.648H601.049V252ZM614.83 235.793C613.693 235.793 612.803 236.156 612.158 236.883C611.514 237.598 611.145 238.617 611.051 239.941H618.574C618.551 238.617 618.205 237.598 617.537 236.883C616.869 236.156 615.967 235.793 614.83 235.793ZM615.586 252.352C612.422 252.352 609.949 251.479 608.168 249.732C606.387 247.986 605.496 245.514 605.496 242.314C605.496 239.021 606.316 236.479 607.957 234.686C609.609 232.881 611.889 231.979 614.795 231.979C617.572 231.979 619.734 232.77 621.281 234.352C622.828 235.934 623.602 238.119 623.602 240.908V243.51H610.928C610.986 245.033 611.438 246.223 612.281 247.078C613.125 247.934 614.309 248.361 615.832 248.361C617.016 248.361 618.135 248.238 619.189 247.992C620.244 247.746 621.346 247.354 622.494 246.814V250.963C621.557 251.432 620.555 251.777 619.488 252C618.422 252.234 617.121 252.352 615.586 252.352Z" fill="#08154A"/>
<defs>
<linearGradient id="paint0_linear" x1="-172" y1="656" x2="707" y2="1.44683e-05" gradientUnits="userSpaceOnUse">
<stop stop-color="#40D0CE"/>
<stop offset="1" stop-color="#1C2E7C"/>
</linearGradient>
<linearGradient id="paint1_linear" x1="-172" y1="656" x2="707" y2="1.44683e-05" gradientUnits="userSpaceOnUse">
<stop stop-color="#40D0CE"/>
<stop offset="1" stop-color="#1C2E7C"/>
</linearGradient>
</defs>
</svg>
