<svg width="125" height="322" viewBox="0 0 125 322" fill="none" xmlns="http://www.w3.org/2000/svg">
<circle cx="62.5" cy="114.5" r="62.5" fill="url(#paint0_linear)"/>
<path d="M29.5055 115.2C29.5055 103.6 33.3721 95.4 41.1055 90.6C44.7055 88.3333 48.6388 87.1333 52.9055 87V105.8C49.0388 105.8 46.3055 107.333 44.7055 110.4C44.1721 111.733 43.7721 113.333 43.5055 115.2H57.7055V143.2L29.5055 144.4V115.2ZM66.9055 115.2C66.9055 103.733 70.8388 95.5333 78.7055 90.6C82.0388 88.4667 85.9721 87.2667 90.5055 87V105.8C86.3721 105.8 83.6388 107.333 82.3055 110.4C81.5055 111.733 81.1055 113.333 81.1055 115.2H95.1055V143.2L66.9055 144.4V115.2Z" fill="#F0FAF9"/>
<defs>
<linearGradient id="paint0_linear" x1="0" y1="177" x2="125" y2="52" gradientUnits="userSpaceOnUse">
<stop offset="0.1875" stop-color="#40D0CE"/>
<stop offset="1" stop-color="#1C2E7C"/>
</linearGradient>
</defs>
</svg>
