<svg width="168" height="65" viewBox="0 0 168 65" fill="none" xmlns="http://www.w3.org/2000/svg">
<g clip-path="url(#clip0)">
<path d="M5.94091 46.0037L5.51294 51.9173C10.7346 59.0663 19.1799 63.7109 28.7109 63.7109C40.6691 63.7109 50.9183 56.3995 55.2358 46.0037H5.94091Z" fill="#74727F"/>
<path d="M21.0583 46.0037C31.6815 46.0037 32.8817 60.7224 23.859 63.3023C25.4362 63.5708 27.0572 63.7109 28.7109 63.7109C40.6691 63.7109 50.9183 56.3995 55.2358 46.0037H21.0583Z" fill="#5F5E6A"/>
<path d="M28.7109 6.28906C20.67 6.28906 13.4025 9.59609 8.19033 14.9224L5.94092 46.0037H55.2333C56.6413 42.6144 57.4219 38.8988 57.4219 35C57.4219 19.1434 44.5676 6.28906 28.7109 6.28906Z" fill="#6849A3"/>
<path d="M55.0479 46.4449C55.1116 46.2984 55.1745 46.1514 55.2359 46.0037H55.2334C55.1721 46.1511 55.1114 46.2987 55.0479 46.4449Z" fill="#2B1266"/>
<path d="M15.3575 14.9403L8.31709 14.7928C7.25666 15.8629 6.28025 17.0161 5.39783 18.2416H31.9161C31.6395 17.2733 30.8676 16.527 29.8911 16.2814C25.4228 15.1576 19.7095 15.0315 15.3575 14.9403Z" fill="#EEEFEB"/>
<path d="M8.88205 18.1858C9.21697 18.0236 9.38466 17.6342 9.24169 17.2908C8.61369 15.7828 9.8697 14.8254 9.8697 14.8254L8.31709 14.7928C7.25666 15.8629 6.28025 17.0161 5.39783 18.2416H8.77459C8.8108 18.2217 8.84677 18.2029 8.88205 18.1858Z" fill="#D6D6D0"/>
<path d="M58.1091 33.5486C57.9487 31.2841 56.0648 29.5291 53.7946 29.5291H38.8271C38.3135 29.5291 37.8383 29.3029 37.5134 28.9298V36.8073H50.5711C51.2911 36.8073 51.9348 37.2559 52.1839 37.9316L53.8995 42.5834H58.7495L58.1091 33.5486Z" fill="#59EB5B"/>
<path d="M0 35C0 35.6073 0.0210938 36.2094 0.0582422 36.8073H5.64785C6.36785 36.8073 7.01156 37.256 7.2607 37.9316L10.826 47.5991C10.8773 47.7384 10.9075 47.88 10.9218 48.021H17.9224V17.9696H5.59605C2.07973 22.7342 0 28.6239 0 35H0Z" fill="#23E027"/>
<path d="M5.59605 17.9696C2.07973 22.7342 0 28.6239 0 35C0 35.6073 0.0210938 36.2094 0.0582422 36.8073H5.64785C6.36785 36.8073 7.01156 37.256 7.2607 37.9316L7.36969 38.227C7.36969 31.5602 7.36969 23.0913 7.36969 21.233C7.36969 19.293 8.22281 18.5052 8.88199 18.1858C8.98898 18.134 9.07863 18.0588 9.14684 17.9696H5.59605Z" fill="#1DBE20"/>
<path d="M32.9993 44.951L35.5881 37.9316C35.8371 37.256 36.481 36.8073 37.201 36.8073H37.9217V29.2741C37.601 29.0789 37.3442 28.7819 37.2024 28.4159L33.602 19.1243C33.3324 18.4283 32.6626 17.9696 31.9163 17.9696H17.5145V44.951H32.9993Z" fill="#59EB5B"/>
<path d="M21.8989 22.4438V28.3182C21.8989 28.987 22.441 29.529 23.1097 29.529H37.9214V29.274C37.6008 29.0788 37.3439 28.7818 37.2021 28.4158L34.4188 21.2328H23.1096C22.441 21.2331 21.8989 21.7752 21.8989 22.4438Z" fill="#4B4A55"/>
<path d="M27.3488 28.3183V22.4438C27.3488 21.7751 27.891 21.233 28.5596 21.233H23.1097C22.441 21.233 21.8989 21.7751 21.8989 22.4438V28.3183C21.8989 28.987 22.441 29.5291 23.1097 29.5291H28.5596C27.891 29.5291 27.3488 28.987 27.3488 28.3183Z" fill="#363540"/>
<path d="M11.8976 21.233H3.51087C2.11248 23.7874 1.09236 26.5778 0.522827 29.5291H11.8975C12.5662 29.5291 13.1083 28.987 13.1083 28.3183V22.4438C13.1085 21.7751 12.5664 21.233 11.8976 21.233Z" fill="#4B4A55"/>
<path d="M0.522949 29.5291H7.36975C7.36975 25.631 7.36975 22.3137 7.36975 21.233H3.51088C2.11248 23.7874 1.09236 26.5778 0.522949 29.5291Z" fill="#363540"/>
<path d="M24.4633 34.0153H22.4429C21.8797 34.0153 21.423 33.5587 21.423 32.9954C21.423 32.4322 21.8795 31.9755 22.4429 31.9755H24.4633C25.0265 31.9755 25.4832 32.4321 25.4832 32.9954C25.4832 33.5586 25.0266 34.0153 24.4633 34.0153Z" fill="#83F184"/>
<path d="M43.8202 34.0153H42.3437C41.7805 34.0153 41.3239 33.5587 41.3239 32.9954C41.3239 32.4322 41.7804 31.9755 42.3437 31.9755H43.8202C44.3834 31.9755 44.8401 32.4321 44.8401 32.9954C44.8401 33.5586 44.3835 34.0153 43.8202 34.0153Z" fill="#F1C560"/>
<path d="M57.8923 32.9954H57.4878C56.5903 32.9954 55.856 33.7297 55.856 34.6272V37.9576C55.856 38.8551 56.5903 39.5894 57.4878 39.5894H57.8923C58.7899 39.5894 59.5242 38.8551 59.5242 37.9576V34.6272C59.5242 33.7297 58.7899 32.9954 57.8923 32.9954Z" fill="#EEEFEB"/>
<path d="M57.8923 36.7475H57.4878C56.5903 36.7475 55.856 36.0132 55.856 35.1157V37.9575C55.856 38.855 56.5903 39.5893 57.4878 39.5893H57.8923C58.7897 39.5893 59.524 38.855 59.524 37.9575V35.1157C59.5242 36.0132 58.7899 36.7475 57.8923 36.7475Z" fill="#D6D6D0"/>
<path d="M38.2762 27.041H36.3753C35.8546 27.041 35.4285 27.467 35.4285 27.9878V31.0703C35.4285 31.5911 35.8546 32.0172 36.3753 32.0172H38.2762C39.4523 32.0172 40.4144 31.055 40.4144 29.879V29.1792C40.4144 28.0032 39.4522 27.041 38.2762 27.041Z" fill="#EEEFEB"/>
<path d="M37.1028 29.879V29.1792C37.1028 28.1691 37.8132 27.3188 38.7586 27.0983C38.6032 27.062 38.4422 27.041 38.2761 27.041H36.3752C35.8544 27.041 35.4283 27.467 35.4283 27.9878V31.0703C35.4283 31.5911 35.8544 32.0172 36.3752 32.0172H38.2761C38.4422 32.0172 38.6032 31.9961 38.7586 31.9599C37.8133 31.7394 37.1028 30.889 37.1028 29.879Z" fill="#D6D6D0"/>
<path d="M8.20691 44.6232L9.44722 47.9864C9.50523 48.1437 9.53921 48.3037 9.5555 48.4633H33.2935C33.3096 48.3038 33.3435 48.1437 33.4016 47.9864L34.6419 44.6232H8.20691Z" fill="#5F5E6A"/>
<path d="M27.2586 44.6232C28.5854 44.6232 29.5031 45.9495 29.0361 47.1914C29.0308 47.2054 29.0256 47.2193 29.0204 47.233C28.742 47.9734 28.0339 48.4632 27.2429 48.4632H33.2933C33.3095 48.3037 33.3433 48.1436 33.4015 47.9862L34.6418 44.6231H27.2586V44.6232Z" fill="#4B4A55"/>
<path d="M36.5203 38.7745H51.2517V43.5338H36.5203V38.7745Z" fill="#21212B"/>
<path d="M43.8859 55.6193C39.4665 55.6193 35.871 52.0237 35.871 47.6043C35.871 43.185 39.4665 39.5894 43.8859 39.5894C48.3053 39.5894 51.9008 43.185 51.9008 47.6043C51.9009 52.0236 48.3054 55.6193 43.8859 55.6193ZM43.8859 43.0797C41.3911 43.0797 39.3613 45.1095 39.3613 47.6043C39.3613 50.0991 41.391 52.1289 43.8859 52.1289C46.3807 52.1289 48.4105 50.0993 48.4105 47.6043C48.4105 45.1094 46.3808 43.0797 43.8859 43.0797Z" fill="#363540"/>
<path d="M43.8859 55.6193C39.4665 55.6193 35.871 52.0237 35.871 47.6043C35.871 43.185 39.4665 39.5894 43.8859 39.5894C48.3053 39.5894 51.9008 43.185 51.9008 47.6043C51.9009 52.0236 48.3054 55.6193 43.8859 55.6193ZM43.8859 43.0797C41.3911 43.0797 39.3613 45.1095 39.3613 47.6043C39.3613 50.0991 41.391 52.1289 43.8859 52.1289C46.3807 52.1289 48.4105 50.0993 48.4105 47.6043C48.4105 45.1094 46.3808 43.0797 43.8859 43.0797Z" fill="#363540"/>
<path d="M49.0567 53.7213C47.7472 53.4924 47.545 52.6292 47.548 52.1074C47.5493 51.8847 47.4 51.6906 47.1831 51.6404C46.8675 51.5674 46.6501 51.4409 46.5011 51.2931C45.7621 51.8185 44.8598 52.1288 43.886 52.1288C41.3912 52.1288 39.3614 50.0991 39.3614 47.6042C39.3614 45.628 40.6356 43.9447 42.405 43.3298C42.3464 43.0606 42.3943 42.7968 42.4629 42.5927C42.5358 42.3755 42.4413 42.1418 42.2416 42.0294C40.9223 41.2866 41.8973 39.8468 41.9036 39.8377C38.4398 40.7224 35.871 43.8688 35.871 47.6042C35.871 52.0236 39.4665 55.6192 43.8859 55.6192C45.8552 55.6193 47.6598 54.904 49.0567 53.7213Z" fill="#21212B"/>
<path d="M43.8859 52.1288C46.3848 52.1288 48.4105 50.1031 48.4105 47.6042C48.4105 45.1054 46.3848 43.0796 43.8859 43.0796C41.3871 43.0796 39.3613 45.1054 39.3613 47.6042C39.3613 50.1031 41.3871 52.1288 43.8859 52.1288Z" fill="#D6D6D0"/>
<path d="M43.8858 52.1288C44.8596 52.1288 45.7619 51.8185 46.5009 51.293C46.2572 51.0513 46.1963 50.752 46.1908 50.5333C46.186 50.3468 46.0696 50.1829 45.8969 50.1121C42.4398 48.6945 42.8508 45.5343 43.084 44.5195C43.1267 44.3337 43.0486 44.146 42.8939 44.0347C42.5984 43.8222 42.458 43.5738 42.4049 43.3298C40.6354 43.9447 39.3613 45.628 39.3613 47.6042C39.3613 50.0991 41.391 52.1288 43.8858 52.1288Z" fill="#C6C6C1"/>
<path d="M43.886 53.1487C40.8289 53.1487 38.3416 50.6615 38.3416 47.6042C38.3416 44.547 40.8289 42.0597 43.886 42.0597C46.9432 42.0597 49.4304 44.5469 49.4304 47.6042C49.4304 50.6615 46.9432 53.1487 43.886 53.1487ZM43.886 44.0995C41.9535 44.0995 40.3813 45.6717 40.3813 47.6042C40.3813 49.5368 41.9535 51.1089 43.886 51.1089C45.8186 51.1089 47.3907 49.5368 47.3907 47.6042C47.3907 45.6718 45.8185 44.0995 43.886 44.0995Z" fill="#EEEFEB"/>
<path d="M43.886 53.1487C45.2489 53.1487 46.4977 52.6535 47.4641 51.8348C47.3995 51.7397 47.302 51.6679 47.1831 51.6404C46.3517 51.4481 46.2 50.8858 46.191 50.5333C46.1889 50.4493 46.1631 50.3704 46.1207 50.302C45.5137 50.8057 44.7347 51.109 43.8862 51.109C41.9536 51.109 40.3814 49.5368 40.3814 47.6042C40.3814 45.9631 41.5156 44.5824 43.041 44.2032C43.0064 44.1381 42.9571 44.0799 42.8942 44.0347C42.2726 43.5877 42.3324 42.982 42.463 42.5927C42.5022 42.4763 42.4919 42.3557 42.4443 42.2511C40.084 42.8874 38.3416 45.0457 38.3416 47.6042C38.3416 50.6615 40.8289 53.1487 43.886 53.1487Z" fill="#D6D6D0"/>
<path d="M59.0227 42.1755H53.6274L55.4772 47.1913C55.6973 47.788 55.5641 48.4275 55.1853 48.884H59.1152C59.5916 48.884 59.9968 48.5073 59.9999 48.0309C59.9999 48.0277 59.9999 48.0245 59.9999 48.0213V43.1529C60 42.613 59.5625 42.1755 59.0227 42.1755Z" fill="#4B4A55"/>
<path d="M57.4218 48.0308C57.4218 48.0276 57.4218 48.0243 57.4218 48.0212V43.1527C57.4218 42.6131 57.8593 42.1755 58.399 42.1755H53.6274L55.4772 47.1913C55.6973 47.7879 55.5641 48.4275 55.1853 48.884H58.3065C57.8302 48.8839 57.425 48.5071 57.4218 48.0308Z" fill="#363540"/>
<path d="M55.7493 47.1912L52.1839 37.5235C51.9348 36.8479 51.291 36.3992 50.571 36.3992C46.9702 36.3992 39.2983 36.3992 37.2007 36.3992C36.4807 36.3992 35.837 36.8478 35.5879 37.5235L32.0226 47.1912C31.6845 48.1077 32.177 49.1277 33.1193 49.4257C34.0017 49.7047 34.9447 49.2037 35.2649 48.3354L38.2587 40.2177C38.343 39.9892 38.5607 39.8374 38.8042 39.8374H48.9675C49.211 39.8374 49.4288 39.9892 49.513 40.2177L52.5236 48.3808C52.8526 49.2731 53.8421 49.727 54.7312 49.3988C55.622 49.0703 56.0779 48.0819 55.7493 47.1912Z" fill="#5F5E6A"/>
<path d="M0.247192 38.7745C0.411255 40.0234 0.655474 41.247 0.974341 42.4401L0.975395 42.4395L1.43934 43.5338H6.3284V38.7745H0.247192Z" fill="#21212B"/>
<path d="M0.388306 39.7188C0.541235 40.6437 0.739282 41.5534 0.978345 42.4463L1.61174 43.94C2.74694 44.7628 3.48745 46.0982 3.48745 47.6042C3.48745 47.8239 3.47034 48.0396 3.43975 48.251L4.07221 49.7425C4.55139 50.5418 5.06749 51.3164 5.61979 52.0626C6.4769 50.787 6.97788 49.2532 6.97788 47.6042C6.97776 43.6715 4.12963 40.3935 0.388306 39.7188Z" fill="#21212B"/>
<path d="M0.975342 42.4395C1.6712 45.0403 2.72237 47.4955 4.07495 49.7496C4.35304 49.0894 4.50714 48.3644 4.50714 47.6042C4.50714 45.2569 3.04019 43.2471 0.975342 42.4395Z" fill="#EEEFEB"/>
<path d="M7.26067 37.5236C7.01164 36.8481 6.36782 36.3994 5.64782 36.3994C4.21754 36.3994 2.14485 36.3994 0.0343018 36.3994C0.0902002 37.5651 0.216763 38.7122 0.407778 39.8374H4.04434C4.28786 39.8374 4.50559 39.9892 4.58985 40.2176L7.60039 48.3807C7.92946 49.273 8.91887 49.7268 9.80797 49.3987C10.6987 49.0702 11.1546 48.0819 10.826 47.1911L7.26067 37.5236Z" fill="#5F5E6A"/>
<path d="M35.5879 37.524L32.0226 47.1916C31.6845 48.1082 32.177 49.1282 33.1193 49.4262C34.0017 49.7052 34.9447 49.2042 35.2649 48.3359L38.2587 40.2182C38.343 39.9898 38.5607 39.838 38.8042 39.838C35.8834 39.1284 37.2007 36.4 37.2007 36.4C36.4807 36.3997 35.8369 36.8484 35.5879 37.524Z" fill="#4B4A55"/>
<path d="M7.36965 37.8191L7.26067 37.5236C7.01165 36.8481 6.36782 36.3994 5.64782 36.3994C4.21754 36.3994 2.14485 36.3994 0.0343018 36.3994C0.0902002 37.5651 0.216763 38.7122 0.407778 39.8374H4.04434C4.28786 39.8374 4.50559 39.9891 4.58985 40.2175C4.58985 37.0758 7.36965 37.8191 7.36965 37.8191Z" fill="#4B4A55"/>
</g>
<path d="M86.9903 41.4844C86.9903 44.5781 85.8731 47.0156 83.6387 48.7969C81.42 50.5781 78.3262 51.4688 74.3575 51.4688C70.7012 51.4688 67.4669 50.7812 64.6544 49.4062V42.6562C66.9669 43.6875 68.92 44.4141 70.5137 44.8359C72.1231 45.2578 73.5919 45.4688 74.92 45.4688C76.5137 45.4688 77.7325 45.1641 78.5762 44.5547C79.4356 43.9453 79.8653 43.0391 79.8653 41.8359C79.8653 41.1641 79.6778 40.5703 79.3028 40.0547C78.9278 39.5234 78.3731 39.0156 77.6387 38.5312C76.92 38.0469 75.4434 37.2734 73.2091 36.2109C71.1153 35.2266 69.545 34.2812 68.4981 33.375C67.4512 32.4688 66.6153 31.4141 65.9903 30.2109C65.3653 29.0078 65.0528 27.6016 65.0528 25.9922C65.0528 22.9609 66.0762 20.5781 68.1231 18.8438C70.1856 17.1094 73.0294 16.2422 76.6544 16.2422C78.4356 16.2422 80.1309 16.4531 81.7403 16.875C83.3653 17.2969 85.0606 17.8906 86.8262 18.6562L84.4825 24.3047C82.6544 23.5547 81.1387 23.0312 79.9356 22.7344C78.7481 22.4375 77.5762 22.2891 76.42 22.2891C75.045 22.2891 73.9903 22.6094 73.2559 23.25C72.5216 23.8906 72.1544 24.7266 72.1544 25.7578C72.1544 26.3984 72.3028 26.9609 72.5997 27.4453C72.8966 27.9141 73.3653 28.375 74.0059 28.8281C74.6622 29.2656 76.2012 30.0625 78.6231 31.2188C81.8262 32.75 84.0216 34.2891 85.2091 35.8359C86.3966 37.3672 86.9903 39.25 86.9903 41.4844ZM113.172 16.7344V38.9062C113.172 41.4375 112.602 43.6562 111.461 45.5625C110.336 47.4688 108.703 48.9297 106.562 49.9453C104.422 50.9609 101.891 51.4688 98.9688 51.4688C94.5625 51.4688 91.1406 50.3438 88.7031 48.0938C86.2656 45.8281 85.0469 42.7344 85.0469 38.8125V16.7344H92.2891V37.7109C92.2891 40.3516 92.8203 42.2891 93.8828 43.5234C94.9453 44.7578 96.7031 45.375 99.1562 45.375C101.531 45.375 103.25 44.7578 104.312 43.5234C105.391 42.2734 105.93 40.3203 105.93 37.6641V16.7344H113.172ZM133.189 16.7344H140.525L128.877 51H120.955L109.33 16.7344H116.666L123.111 37.125C123.471 38.3281 123.838 39.7344 124.213 41.3438C124.603 42.9375 124.846 44.0469 124.939 44.6719C125.111 43.2344 125.697 40.7188 126.697 37.125L133.189 16.7344Z" fill="#5F5E6A"/>
<defs>
<clipPath id="clip0">
<rect y="5" width="60" height="60" fill="white"/>
</clipPath>
</defs>
</svg>
