<svg width="497" height="242" viewBox="0 0 497 242" fill="none" xmlns="http://www.w3.org/2000/svg">
<path d="M489.664 132.084L488.688 132.132C487.76 132.23 486.93 130.716 486.686 128.763L485.416 116.897C485.172 114.699 485.855 112.746 486.881 112.697L487.564 112.648C488.443 112.599 489.322 113.967 489.567 115.871L491.08 127.591C491.373 129.886 490.69 131.986 489.664 132.084Z" fill="#E94E1B"/>
<path d="M9.10193 135.746L5.68366 135.453C3.53502 135.257 1.77706 133.402 1.58173 131.058L0.0190874 114.748C-0.176243 112.404 1.14221 110.353 3.19318 109.815L5.34183 109.278L9.10193 135.746Z" fill="#F1C560"/>
<path d="M10.5177 136.527L5.58563 136.186L2.60683 108.693L8.71092 108.497L10.5177 136.527Z" fill="#07134B"/>
<path opacity="0.1" d="M496.989 182.332C496.989 185.604 387.018 188.29 251.361 188.29C115.704 188.29 5.73273 185.604 5.73273 182.332C5.73273 179.061 115.704 176.375 251.361 176.375C387.018 176.375 496.989 179.061 496.989 182.332Z" fill="white"/>
<path d="M9.83426 152.74L4.36503 152.886C2.94888 152.935 1.77688 151.91 1.53272 150.542L0.214219 141.606C-0.0299446 139.946 1.23973 138.432 2.94887 138.432H10.2738L11.9341 150.298C12.1294 151.568 11.1527 152.74 9.83426 152.74Z" fill="#DAD1D1"/>
<path d="M472.231 154.595L420.078 158.209L417.343 158.404L410.799 158.844H51.4887L21.2125 154.986C14.7177 154.156 9.5903 149.028 8.71131 142.485L5.34185 110.109C4.26753 101.905 10.4205 100.391 18.6732 100L155.014 93.1638C160.093 92.9196 164.927 91.1128 168.931 88.0364L208.974 57.1741C211.709 55.1232 215.029 54 218.399 54H336.232C347.659 54 358.646 58.4926 366.85 66.4523L384.186 83.3973C386.334 85.4971 389.02 86.9132 391.901 87.4992L479.165 105.567C483.365 106.446 486.539 109.913 486.978 114.162L489.176 134.232C490.348 144.633 482.632 153.863 472.231 154.595Z" fill="#0F1D67"/>
<path opacity="0.2" d="M146.615 97.6079L18.9175 104.005C16.0363 104.151 8.27193 104.444 9.29742 110.939L12.6669 141.997C10.5182 106.447 14.7667 108.546 29.7095 107.374L146.615 97.6079Z" fill="#F6F6F6"/>
<path opacity="0.2" d="M485.22 134.72L483.023 114.65C482.73 112.111 480.874 110.06 478.384 109.523L391.803 90.6246C391.462 90.5757 390.192 91.2594 390.192 91.2594C474.428 110.988 478.384 109.474 485.22 134.72Z" fill="#F6F6F6"/>
<path d="M218.399 58.004C215.909 58.004 213.418 58.8341 211.465 60.3968L171.422 91.259C169.713 92.5775 167.857 93.7006 165.953 94.5796L160.63 116.359L165.953 154.937H272.408L268.404 114.943L272.408 58.004H218.399Z" fill="#07134B"/>
<path d="M268.111 62.0087H218.399C216.787 62.0087 215.176 62.5459 213.857 63.5225L173.815 94.3848C173.522 94.6289 173.229 94.8243 172.887 95.0196H265.767L268.111 62.0087Z" fill="#BDE7E7"/>
<path d="M347.757 64.0599C345.12 60.3486 340.823 57.9558 336.281 57.9558C336.281 57.9558 336.232 57.9558 336.183 57.9558H276.363L272.359 114.846L276.363 154.84H339.26C340.92 137.651 352.738 123.392 369.097 118.459L369.341 99.3171C369.39 96.0941 368.413 92.9688 366.508 90.3807L347.757 64.0599Z" fill="#07134B"/>
<path d="M344.534 66.4037C342.58 63.669 339.455 62.0087 336.232 62.0087H280.124L277.78 95.1173L364.555 95.0196L344.534 66.4037Z" fill="#BDE7E7"/>
<path d="M245.354 100.782H263.081V106.446H245.354V100.782Z" fill="#DAD1D1"/>
<path d="M346.829 100.782H364.555V106.446H346.829V100.782Z" fill="#DAD1D1"/>
<path d="M489.078 134.184L489.322 136.772H478.433C472.915 136.772 468.422 141.264 468.422 146.782V146.88L492.057 145.806C494.743 145.708 497.184 143.559 496.989 140.922C496.94 140.336 496.891 139.799 496.843 139.262C496.598 136.381 494.157 134.184 491.324 134.184H489.078Z" fill="#DAD1D1"/>
<path d="M19.8452 150.249H5.63487C4.41406 150.249 3.33975 149.37 3.04675 148.149L2.2166 144.243C1.87478 142.582 3.09559 141.02 4.80473 141.02H19.0151C20.2359 141.02 21.3102 141.899 21.6032 143.119L22.4333 147.026C22.7752 148.686 21.5055 150.249 19.8452 150.249Z" fill="#DAD1D1"/>
<path d="M189.001 96.5822L180.456 100.391L179.918 96.0938L187.146 89.4037L189.001 96.5822Z" fill="#0F1D67"/>
<path d="M191.297 83.8367L190.613 83.9343C188.415 84.1785 186.657 85.79 186.12 87.9386L184.997 92.3824C183.874 97.0215 187.683 101.368 192.42 100.782L193.348 100.684L191.297 83.8367Z" fill="#0F1D67"/>
<path d="M131.184 158.844H59.5949L61.5971 147.612C62.8667 140.531 67.3105 134.671 73.3657 131.497C76.491 129.837 80.0558 128.958 83.8159 128.958H105.449C110.283 128.958 114.825 130.374 118.634 132.816C124.201 136.381 128.254 142.192 129.474 149.126L131.184 158.844Z" fill="#403430"/>
<path d="M420.078 158.209L417.343 158.404L414.657 158.599L410.8 158.892H348.636L350.638 147.661C351.859 140.58 356.302 134.818 362.309 131.644C365.483 129.935 369.096 129.007 372.857 129.007H394.441C399.226 129.007 403.719 130.374 407.528 132.816C413.144 136.381 417.294 142.241 418.515 149.224L420.078 158.209Z" fill="#403430"/>
<g opacity="0.75">
<path opacity="0.75" d="M234.318 63.425L211.025 94.092H229.435L252.923 63.425H234.318Z" fill="white"/>
<path opacity="0.75" d="M225.967 63.4251L202.821 94.092H208.778L231.974 63.4251H225.967Z" fill="white"/>
</g>
<g opacity="0.75">
<path opacity="0.75" d="M314.99 63.425L291.696 94.092H310.106L333.595 63.425H314.99Z" fill="white"/>
<path opacity="0.75" d="M306.639 63.4251L283.541 94.092H289.45L312.645 63.4251H306.639Z" fill="white"/>
</g>
<path opacity="0.2" d="M496.843 139.262C496.891 139.799 496.94 140.336 496.989 140.922C497.184 143.559 494.743 145.708 492.057 145.805L486.49 146.05C483.462 150.835 478.335 154.156 472.28 154.595L420.126 158.209L417.392 158.404L410.848 158.844H348.684H131.232H59.6437H51.5374L21.2612 154.986C17.6964 154.546 14.5711 152.789 12.3248 150.249H12.0318C12.2272 151.568 11.2017 152.74 9.88318 152.789L4.41391 152.935C2.99776 152.984 1.82581 151.958 1.58164 150.591L0.26314 141.655C0.214308 141.362 0.26314 141.069 0.26314 140.825L490.006 119.338L491.08 127.591C491.373 129.886 490.69 131.986 489.664 132.035L488.98 132.132L489.176 134.183H491.276C494.157 134.183 496.598 136.381 496.843 139.262ZM489.322 136.771V136.576C489.322 136.625 489.273 136.674 489.322 136.771Z" fill="black"/>
<path d="M115.02 153.081C115.02 163.922 106.23 172.712 95.3402 172.712C84.4994 172.712 75.7095 163.922 75.7095 153.081C75.7095 142.24 84.4994 133.45 95.3402 133.45C106.23 133.402 115.02 142.192 115.02 153.081Z" fill="#DAD1D1"/>
<path d="M126.203 153.081C126.203 155.035 126.007 156.988 125.665 158.844C122.98 173.103 110.43 183.895 95.3892 183.895C80.3487 183.846 67.8475 173.103 65.1617 158.844C64.8199 156.939 64.6246 155.035 64.6246 153.032C64.6246 144.633 67.9941 137.064 73.4145 131.497C76.5398 129.837 80.1045 128.958 83.8647 128.958H105.498C110.332 128.958 114.873 130.374 118.682 132.816C123.321 138.236 126.203 145.366 126.203 153.081ZM95.3403 172.028C103.788 172.028 110.967 166.51 113.408 158.844C113.994 157.037 114.287 155.083 114.287 153.081C114.287 142.582 105.791 134.085 95.3403 134.085C84.8901 134.085 76.3444 142.533 76.3444 153.032C76.3444 155.083 76.6374 156.988 77.2234 158.844C79.7627 166.51 86.8923 172.028 95.3403 172.028Z" fill="#1D1715"/>
<path d="M109.697 153.081C109.697 160.992 103.3 167.389 95.3403 167.389C87.3805 167.389 81.0323 160.992 81.0323 153.081C81.0323 145.171 87.4294 138.773 95.3403 138.773C103.251 138.773 109.697 145.171 109.697 153.081Z" fill="white"/>
<path d="M104.032 153.082C104.032 157.867 100.175 161.725 95.389 161.725C90.6034 161.725 86.7456 157.867 86.7456 153.082C86.7456 148.296 90.6034 144.438 95.389 144.438C100.126 144.438 104.032 148.296 104.032 153.082Z" fill="#DAD1D1"/>
<path opacity="0.5" d="M87.8692 137.455C84.8416 138.92 82.3512 141.215 80.5932 144.047L95.3406 152.935L87.8692 137.455Z" fill="white"/>
<path opacity="0.5" d="M95.3892 152.935L102.958 168.61C105.986 167.145 108.525 164.753 110.283 161.871L95.3892 152.935Z" fill="white"/>
<path d="M404.012 153.081C404.012 163.922 395.222 172.712 384.332 172.712C373.491 172.712 364.653 163.922 364.653 153.081C364.653 142.24 373.442 133.451 384.332 133.451C395.222 133.402 404.012 142.192 404.012 153.081Z" fill="#DAD1D1"/>
<path d="M415.146 153.081C415.146 154.937 414.95 156.793 414.657 158.551C412.069 172.956 399.47 183.895 384.332 183.846C369.292 183.797 356.791 173.054 354.105 158.795C353.714 156.89 353.568 154.986 353.568 152.984C353.568 144.633 356.888 137.064 362.309 131.546C365.483 129.837 369.096 128.909 372.857 128.909H394.441C399.226 128.909 403.719 130.276 407.528 132.718C412.265 138.187 415.195 145.317 415.146 153.081ZM384.332 172.028C392.78 172.028 399.959 166.51 402.4 158.844C402.986 157.037 403.279 155.083 403.279 153.081C403.279 142.582 394.782 134.085 384.332 134.085C373.833 134.085 365.336 142.533 365.336 153.033C365.336 155.083 365.629 156.988 366.215 158.844C368.706 166.51 375.884 172.028 384.332 172.028Z" fill="#1D1715"/>
<path d="M398.689 153.081C398.689 160.992 392.292 167.389 384.381 167.389C376.47 167.389 370.073 160.992 370.073 153.081C370.073 145.17 376.47 138.773 384.381 138.773C392.243 138.724 398.689 145.17 398.689 153.081Z" fill="white"/>
<path d="M392.975 153.082C392.975 157.867 389.118 161.725 384.332 161.725C379.546 161.725 375.689 157.867 375.689 153.082C375.689 148.296 379.546 144.438 384.332 144.438C389.118 144.438 392.975 148.296 392.975 153.082Z" fill="#DAD1D1"/>
<path opacity="0.5" d="M376.861 137.455C373.833 138.92 371.342 141.215 369.585 144.047L384.332 152.935L376.861 137.455Z" fill="white"/>
<path opacity="0.5" d="M384.332 152.935L391.901 168.61C394.929 167.145 397.468 164.753 399.226 161.871L384.332 152.935Z" fill="white"/>
</svg>
