<svg width="497" height="242" viewBox="0 0 497 242" fill="none" xmlns="http://www.w3.org/2000/svg">
<path d="M489.663 171.694H470.698C466.656 171.694 463.361 168.399 463.361 164.359V88.1469C463.361 84.1063 466.656 80.8117 470.698 80.8117H489.663C493.704 80.8739 497 84.1063 497 88.1469V164.359C497 168.399 493.704 171.694 489.663 171.694Z" fill="#6E4F0E"/>
<path d="M463.423 146.207H471.134C473.496 146.207 475.424 144.28 475.424 141.918V110.65C475.424 108.288 473.496 106.298 471.134 106.298H463.423V146.207Z" fill="#C44645"/>
<path d="M28.6028 126.253C28.6028 136.137 22.8201 144.094 15.6694 144.094C8.5188 144.094 2.73615 136.075 2.73615 126.253C2.73615 116.431 8.5188 108.412 15.6694 108.412C22.8201 108.412 28.6028 116.431 28.6028 126.253Z" fill="#BA8924"/>
<path d="M7.95908 106.298H13.6796V146.207H7.95908V106.298Z" fill="#6E4F0E"/>
<path d="M470.2 93.6794V190.281H12.7464L13.7413 108.288C13.7413 107.604 13.8034 106.92 13.9278 106.361C14.8605 100.642 19.5861 96.2281 25.4932 95.793L138.784 87.401L140.525 87.2766L141.147 83.8577L153.085 19.83C153.272 18.0272 153.769 16.411 154.391 14.8569C158.122 6.0298 166.827 0 176.714 0H420.084C431.4 0 441.722 5.78115 447.754 14.8569C449.681 17.8407 451.173 21.1354 452.106 24.7408L468.459 87.2766L470.2 93.6794Z" fill="#E0AC3B"/>
<path d="M250.024 21.3218H164.216C161.915 21.3218 159.988 22.9381 159.553 25.1759L146.868 93.8037C146.806 94.1145 146.806 94.3632 146.806 94.674V169.891C146.806 172.502 148.92 174.615 151.531 174.615H250.024C252.635 174.615 254.749 172.502 254.749 169.891V26.1084C254.749 23.4354 252.635 21.3218 250.024 21.3218Z" fill="#6E4F0E"/>
<path d="M250.272 89.8252V26.1083C250.272 25.9839 250.147 25.8596 250.023 25.8596H164.216C164.091 25.8596 163.967 25.9839 163.967 26.1083L152.153 89.8874H250.272V89.8252Z" fill="#BDE7E7"/>
<path d="M12.6842 178.594H470.2V190.28H12.6842V178.594Z" fill="#6E4F0E"/>
<path d="M143.821 190.218C143.821 189.721 143.883 189.224 143.883 188.726C143.883 160.38 120.877 137.38 92.5227 137.38C64.1689 137.38 41.1625 160.38 41.1625 188.726C41.1625 189.224 41.2247 189.721 41.2247 190.218H143.821Z" fill="#3E312C"/>
<path d="M437.308 190.218C437.308 189.721 437.37 189.224 437.37 188.726C437.37 160.38 414.364 137.38 386.01 137.38C357.656 137.38 334.65 160.38 334.65 188.726C334.65 189.224 334.712 189.721 334.712 190.218H437.308Z" fill="#3E312C"/>
<path d="M242.748 105.615H229.255C227.265 105.615 225.649 103.998 225.649 102.009V101.823C225.649 99.8335 227.265 98.2172 229.255 98.2172H242.748C244.738 98.2172 246.354 99.8335 246.354 101.823V102.009C246.354 103.998 244.738 105.615 242.748 105.615Z" fill="white"/>
<path d="M430.468 123.89H416.167C411.752 123.89 408.208 120.347 408.208 115.934V109.22C408.208 104.806 411.752 101.263 416.167 101.263H430.468C434.883 101.263 438.427 104.806 438.427 109.22V115.934C438.427 120.347 434.82 123.89 430.468 123.89Z" fill="#D69943"/>
<path d="M138.722 87.3387V87.5252C138.722 97.9064 130.328 106.361 119.882 106.361H13.8661C14.7988 100.642 19.5244 96.228 25.4314 95.7929L138.722 87.3387Z" fill="#6E4F0E"/>
<path d="M447.754 14.8569H154.391C158.122 6.0298 166.827 0 176.714 0H420.084C431.4 0 441.722 5.78115 447.754 14.8569Z" fill="#6E4F0E"/>
<path d="M373.76 93.5551L356.474 25.6111C355.853 23.0624 353.552 21.3218 350.94 21.3218H266.936C263.765 21.3218 261.216 23.8705 261.216 27.0408V168.959C261.216 172.129 263.765 174.678 266.936 174.678H324.203C326.939 174.678 329.24 172.751 329.799 170.078C333.406 153.791 351.811 136.51 369.035 133.65C371.833 133.215 373.947 130.853 373.947 127.993V94.9848C373.885 94.4875 373.885 94.0524 373.76 93.5551Z" fill="#6E4F0E"/>
<path d="M368.164 89.8255L352.122 26.7302C351.998 26.1707 351.5 25.7977 350.941 25.7977H266.936C266.252 25.7977 265.693 26.3572 265.693 27.041V89.8255H368.164Z" fill="#BDE7E7"/>
<path d="M364.06 105.615H350.567C348.578 105.615 346.961 103.998 346.961 102.009V101.823C346.961 99.8335 348.578 98.2172 350.567 98.2172H364.06C366.05 98.2172 367.667 99.8335 367.667 101.823V102.009C367.604 103.998 365.988 105.615 364.06 105.615Z" fill="white"/>
<g opacity="0.75">
<path opacity="0.75" d="M217.69 27.7866L172.05 87.8359H195.43L241.38 27.7866H217.69Z" fill="white"/>
<path opacity="0.75" d="M209.11 27.7866L163.781 87.8359H169.75L215.141 27.7866H209.11Z" fill="white"/>
</g>
<g opacity="0.75">
<path opacity="0.75" d="M323.209 27.7866L277.631 87.8359H300.948L346.961 27.7866H323.209Z" fill="white"/>
<path opacity="0.75" d="M314.628 27.7866L269.361 87.8359H275.268L320.722 27.7866H314.628Z" fill="white"/>
</g>
<path d="M419.587 27.7867C419.587 29.0299 418.592 30.0246 417.348 30.0246H390.549C389.306 30.0246 388.311 29.0299 388.311 27.7867C388.311 26.5434 389.306 25.5488 390.549 25.5488H417.348C418.592 25.5488 419.587 26.5434 419.587 27.7867Z" fill="#6E4F0E"/>
<path d="M421.452 35.3707C421.452 36.614 420.457 37.6086 419.213 37.6086H392.414C391.171 37.6086 390.176 36.614 390.176 35.3707C390.176 34.1275 391.171 33.1329 392.414 33.1329H419.213C420.457 33.1329 421.452 34.1275 421.452 35.3707Z" fill="#6E4F0E"/>
<path d="M423.318 42.9545C423.318 44.1977 422.323 45.1923 421.079 45.1923H394.28C393.036 45.1923 392.041 44.1977 392.041 42.9545C392.041 41.7112 393.036 40.7166 394.28 40.7166H421.079C422.323 40.7166 423.318 41.7112 423.318 42.9545Z" fill="#6E4F0E"/>
<path d="M425.182 50.5385C425.182 51.7818 424.188 52.7764 422.944 52.7764H396.145C394.901 52.7764 393.906 51.7818 393.906 50.5385C393.906 49.2953 394.901 48.3007 396.145 48.3007H422.944C424.188 48.3007 425.182 49.2953 425.182 50.5385Z" fill="#6E4F0E"/>
<path d="M427.048 58.1222C427.048 59.3655 426.053 60.3601 424.81 60.3601H398.01C396.767 60.3601 395.772 59.3655 395.772 58.1222C395.772 56.8789 396.767 55.8843 398.01 55.8843H424.81C426.053 55.8843 427.048 56.8789 427.048 58.1222Z" fill="#6E4F0E"/>
<path d="M428.914 65.7062C428.914 66.9495 427.919 67.9441 426.675 67.9441H399.876C398.632 67.9441 397.638 66.9495 397.638 65.7062C397.638 64.463 398.632 63.4684 399.876 63.4684H426.675C427.919 63.4684 428.914 64.463 428.914 65.7062Z" fill="#6E4F0E"/>
<path d="M430.779 73.29C430.779 74.5332 429.784 75.5278 428.54 75.5278H401.741C400.497 75.5278 399.503 74.5332 399.503 73.29C399.503 72.0467 400.497 71.0521 401.741 71.0521H428.54C429.784 71.0521 430.779 72.0467 430.779 73.29Z" fill="#6E4F0E"/>
<path opacity="0.2" d="M12.9333 171.072L12.8089 178.594H12.6224V190.281H470.201V178.594V171.632C470.387 171.632 470.574 171.694 470.76 171.694H489.663C493.704 171.694 497 168.399 497 164.359V135.702L12.9333 171.072Z" fill="black"/>
<path d="M116.835 187.856C116.835 201.283 105.954 212.162 92.5229 212.162C79.0922 212.162 68.2108 201.283 68.2108 187.856C68.2108 174.429 79.0922 163.55 92.5229 163.55C105.954 163.488 116.835 174.429 116.835 187.856Z" fill="#1D1715"/>
<path d="M137.976 187.856C137.976 212.908 117.581 233.235 92.523 233.235C67.4026 233.235 47.1321 212.845 47.1321 187.794C47.1321 162.68 67.5269 142.415 92.5852 142.415C117.644 142.415 137.976 162.804 137.976 187.856ZM120.504 187.856C120.504 172.44 108.006 159.883 92.5852 159.883C77.1647 159.883 64.6045 172.377 64.6045 187.794C64.6045 203.21 77.1026 215.767 92.523 215.767C107.944 215.829 120.504 203.272 120.504 187.856Z" fill="#1D1715"/>
<path d="M124.669 187.856C124.669 205.635 110.244 219.994 92.4606 219.994C74.6773 219.994 60.3138 205.572 60.3138 187.794C60.3138 170.015 74.7394 155.656 92.5227 155.656C110.306 155.656 124.732 170.077 124.669 187.856ZM121.187 187.856C121.187 172.004 108.378 159.137 92.5227 159.137C76.667 159.137 63.7959 171.942 63.7959 187.794C63.7959 203.645 76.6048 216.513 92.4606 216.513C108.378 216.513 121.187 203.708 121.187 187.856Z" fill="#DADADA"/>
<path d="M112.234 187.856C112.234 198.735 103.404 207.562 92.5229 207.562C81.6415 207.562 72.812 198.735 72.812 187.794C72.812 176.915 81.6415 168.088 92.5229 168.088C103.404 168.15 112.234 176.978 112.234 187.856ZM104.897 187.856C104.897 181.018 99.3626 175.486 92.5229 175.423C85.6832 175.423 80.1492 180.956 80.087 187.794C80.087 194.632 85.621 200.226 92.4607 200.226C99.3627 200.226 104.897 194.694 104.897 187.856Z" fill="#EDEDED"/>
<path d="M104.897 187.856C104.897 194.694 99.3005 200.226 92.4607 200.226C85.621 200.226 80.087 194.694 80.087 187.794C80.087 180.956 85.6209 175.423 92.5229 175.423C99.3626 175.423 104.959 181.018 104.897 187.856ZM97.2485 183.069C97.9325 183.753 99.0517 183.753 99.7357 183.069C100.42 182.386 100.42 181.267 99.7357 180.583C99.0517 179.899 97.9325 179.899 97.2485 180.583C96.5645 181.267 96.5645 182.386 97.2485 183.069ZM91.528 180.21C91.528 180.769 91.9633 181.267 92.5851 181.267C93.1447 181.267 93.6421 180.832 93.6421 180.21C93.6421 179.65 93.2069 179.153 92.5851 179.153C91.9633 179.153 91.528 179.65 91.528 180.21ZM85.2479 183.069C85.9319 183.753 87.0511 183.753 87.7351 183.069C88.419 182.386 88.419 181.267 87.7351 180.583C87.0511 179.899 85.9319 179.899 85.2479 180.583C84.5639 181.267 84.5639 182.386 85.2479 183.069ZM84.8748 188.851C85.4344 188.851 85.9319 188.415 85.9319 187.794C85.9319 187.234 85.4966 186.737 84.8748 186.737C84.3152 186.737 83.8178 187.172 83.8178 187.794C83.88 188.415 84.3152 188.851 84.8748 188.851ZM87.7973 192.58C87.1133 191.897 85.994 191.897 85.3101 192.58C84.6261 193.264 84.6261 194.383 85.3101 195.067C85.994 195.751 87.1133 195.751 87.7973 195.067C88.4812 194.383 88.4812 193.264 87.7973 192.58ZM93.5799 195.44C93.5799 194.88 93.1447 194.383 92.5229 194.383C91.9632 194.383 91.4658 194.88 91.4658 195.44C91.4658 195.999 91.9011 196.497 92.5229 196.497C93.0825 196.497 93.5799 195.999 93.5799 195.44ZM97.2485 187.856C97.2485 185.245 95.1344 183.132 92.5229 183.132C89.9113 183.132 87.7973 185.245 87.7973 187.856C87.7973 190.467 89.9113 192.58 92.5229 192.58C95.1344 192.518 97.2485 190.405 97.2485 187.856ZM99.7979 192.58C99.1139 191.897 97.9947 191.897 97.3107 192.58C96.6267 193.264 96.6267 194.383 97.3107 195.067C97.9947 195.751 99.1139 195.751 99.7979 195.067C100.482 194.383 100.482 193.264 99.7979 192.58ZM101.166 187.856C101.166 187.297 100.731 186.799 100.109 186.799C99.5491 186.799 99.0517 187.234 99.0517 187.856C99.0517 188.415 99.487 188.913 100.109 188.913C100.731 188.851 101.166 188.415 101.166 187.856Z" fill="#DAD1D1"/>
<path d="M104.897 187.856C104.897 194.694 99.3005 200.226 92.4607 200.226C85.621 200.226 80.087 194.694 80.087 187.794C80.087 180.956 85.6209 175.423 92.5229 175.423C99.3626 175.423 104.959 181.018 104.897 187.856ZM97.2485 183.069C97.9325 183.753 99.0517 183.753 99.7357 183.069C100.42 182.386 100.42 181.267 99.7357 180.583C99.0517 179.899 97.9325 179.899 97.2485 180.583C96.5645 181.267 96.5645 182.386 97.2485 183.069ZM91.528 180.21C91.528 180.769 91.9633 181.267 92.5851 181.267C93.1447 181.267 93.6421 180.832 93.6421 180.21C93.6421 179.65 93.2069 179.153 92.5851 179.153C91.9633 179.153 91.528 179.65 91.528 180.21ZM85.2479 183.069C85.9319 183.753 87.0511 183.753 87.7351 183.069C88.419 182.386 88.419 181.267 87.7351 180.583C87.0511 179.899 85.9319 179.899 85.2479 180.583C84.5639 181.267 84.5639 182.386 85.2479 183.069ZM84.8748 188.851C85.4344 188.851 85.9319 188.415 85.9319 187.794C85.9319 187.234 85.4966 186.737 84.8748 186.737C84.3152 186.737 83.8178 187.172 83.8178 187.794C83.88 188.415 84.3152 188.851 84.8748 188.851ZM87.7973 192.58C87.1133 191.897 85.994 191.897 85.3101 192.58C84.6261 193.264 84.6261 194.383 85.3101 195.067C85.994 195.751 87.1133 195.751 87.7973 195.067C88.4812 194.383 88.4812 193.264 87.7973 192.58ZM93.5799 195.44C93.5799 194.88 93.1447 194.383 92.5229 194.383C91.9632 194.383 91.4658 194.88 91.4658 195.44C91.4658 195.999 91.9011 196.497 92.5229 196.497C93.0825 196.497 93.5799 195.999 93.5799 195.44ZM97.2485 187.856C97.2485 185.245 95.1344 183.132 92.5229 183.132C89.9113 183.132 87.7973 185.245 87.7973 187.856C87.7973 190.467 89.9113 192.58 92.5229 192.58C95.1344 192.518 97.2485 190.405 97.2485 187.856ZM99.7979 192.58C99.1139 191.897 97.9947 191.897 97.3107 192.58C96.6267 193.264 96.6267 194.383 97.3107 195.067C97.9947 195.751 99.1139 195.751 99.7979 195.067C100.482 194.383 100.482 193.264 99.7979 192.58ZM101.166 187.856C101.166 187.297 100.731 186.799 100.109 186.799C99.5491 186.799 99.0517 187.234 99.0517 187.856C99.0517 188.415 99.487 188.913 100.109 188.913C100.731 188.851 101.166 188.415 101.166 187.856Z" fill="#C6C6C6"/>
<path d="M121.188 187.856C121.188 203.708 108.317 216.513 92.4609 216.513C76.6051 216.513 63.7962 203.645 63.7962 187.794C63.7962 171.942 76.6673 159.137 92.523 159.137C108.379 159.137 121.25 172.004 121.188 187.856ZM110.742 177.288C111.488 178.594 113.353 178.905 114.845 178.034C116.338 177.164 116.96 175.423 116.213 174.118C115.467 172.813 113.602 172.502 112.11 173.372C110.679 174.242 109.995 176.045 110.742 177.288ZM92.523 168.088C81.6416 168.088 72.8122 176.915 72.8122 187.794C72.8122 198.672 81.6416 207.499 92.523 207.562C103.404 207.562 112.234 198.735 112.234 187.856C112.234 176.978 103.404 168.15 92.523 168.088ZM103.094 169.58C104.399 170.326 106.14 169.704 107.011 168.213C107.881 166.721 107.57 164.856 106.265 164.11C104.959 163.364 103.218 163.985 102.347 165.477C101.415 167.031 101.788 168.834 103.094 169.58ZM89.8493 163.613C89.8493 165.353 91.0307 166.783 92.5852 166.783C94.0775 166.783 95.3211 165.353 95.3211 163.613C95.3211 161.872 94.1397 160.442 92.6474 160.442C91.0307 160.442 89.8493 161.872 89.8493 163.613ZM78.0974 168.213C78.9679 169.704 80.709 170.326 82.0147 169.58C83.3205 168.834 83.6314 167.031 82.7609 165.477C81.8904 163.985 80.1493 163.364 78.8436 164.11C77.5378 164.856 77.2269 166.658 78.0974 168.213ZM70.2006 178.034C71.693 178.905 73.5583 178.594 74.3045 177.288C75.0506 175.983 74.4289 174.242 72.9366 173.372C71.4442 172.502 69.5788 172.813 68.8327 174.118C68.0865 175.423 68.6462 177.164 70.2006 178.034ZM68.2731 190.529C70.0141 190.529 71.4442 189.348 71.4442 187.794C71.4442 186.302 70.0141 185.059 68.2731 185.059C66.5321 185.059 65.1019 186.24 65.1019 187.794C65.1019 189.286 66.5321 190.529 68.2731 190.529ZM74.3045 198.362C73.5583 197.056 71.693 196.745 70.2006 197.616C68.7083 198.486 68.0865 200.226 68.7705 201.532C69.5166 202.837 71.3821 203.148 72.8744 202.278C74.4288 201.408 75.0506 199.667 74.3045 198.362ZM81.9525 206.07C80.6468 205.324 78.9058 205.945 78.0353 207.437C77.1647 208.929 77.4756 210.794 78.7814 211.54C80.0872 212.286 81.8282 211.664 82.6987 210.172C83.6314 208.618 83.2583 206.816 81.9525 206.07ZM95.1967 212.037C95.1967 210.297 93.9532 208.867 92.4609 208.867C90.9686 208.867 89.725 210.297 89.725 212.037C89.725 213.778 90.9686 215.208 92.4609 215.208C94.0154 215.208 95.1967 213.778 95.1967 212.037ZM106.949 207.437C106.078 205.945 104.337 205.324 103.031 206.07C101.726 206.816 101.415 208.681 102.285 210.172C103.156 211.664 104.897 212.286 106.203 211.54C107.508 210.794 107.881 208.991 106.949 207.437ZM114.845 197.616C113.353 196.745 111.488 197.056 110.742 198.362C109.995 199.667 110.617 201.408 112.11 202.278C113.602 203.148 115.467 202.837 116.213 201.532C117.022 200.226 116.4 198.486 114.845 197.616ZM119.944 187.856C119.944 186.364 118.514 185.121 116.773 185.121C115.032 185.121 113.602 186.364 113.602 187.856C113.602 189.348 115.032 190.591 116.773 190.591C118.514 190.591 119.944 189.348 119.944 187.856Z" fill="#DAD1D1"/>
<path d="M410.322 187.856C410.322 201.283 399.44 212.162 386.01 212.162C372.579 212.162 361.697 201.283 361.697 187.856C361.697 174.429 372.579 163.55 386.01 163.55C399.378 163.488 410.322 174.429 410.322 187.856Z" fill="#1D1715"/>
<path d="M431.401 187.856C431.401 212.908 411.006 233.235 385.947 233.235C360.827 233.235 340.556 212.845 340.556 187.794C340.556 162.68 360.951 142.415 386.01 142.415C411.13 142.415 431.401 162.804 431.401 187.856ZM413.928 187.856C413.928 172.44 401.43 159.883 386.01 159.883C370.589 159.883 358.029 172.377 358.029 187.794C358.029 203.21 370.527 215.767 385.947 215.767C401.368 215.829 413.928 203.272 413.928 187.856Z" fill="#1D1715"/>
<path d="M418.156 187.856C418.156 205.635 403.731 219.994 385.947 219.994C368.164 219.994 353.801 205.572 353.801 187.794C353.801 170.015 368.226 155.656 386.009 155.656C403.793 155.656 418.156 170.077 418.156 187.856ZM414.674 187.856C414.674 172.004 401.865 159.137 386.009 159.137C370.154 159.137 357.283 171.942 357.283 187.794C357.283 203.645 370.092 216.513 385.947 216.513C401.803 216.513 414.674 203.708 414.674 187.856Z" fill="white"/>
<path d="M405.72 187.856C405.72 198.735 396.891 207.562 386.009 207.562C375.128 207.562 366.299 198.735 366.299 187.794C366.299 176.915 375.128 168.088 386.009 168.088C396.891 168.15 405.72 176.978 405.72 187.856ZM398.383 187.856C398.383 181.018 392.849 175.486 386.009 175.423C379.17 175.423 373.636 180.956 373.636 187.794C373.636 194.632 379.17 200.226 386.009 200.226C392.787 200.226 398.383 194.694 398.383 187.856Z" fill="white"/>
<path d="M398.383 187.856C398.383 194.694 392.849 200.226 385.947 200.226C379.107 200.226 373.573 194.694 373.573 187.794C373.573 180.956 379.107 175.423 385.947 175.423C392.849 175.423 398.383 181.018 398.383 187.856ZM390.735 183.069C391.419 183.753 392.538 183.753 393.222 183.069C393.906 182.386 393.906 181.267 393.222 180.583C392.538 179.899 391.419 179.899 390.735 180.583C390.051 181.267 390.051 182.386 390.735 183.069ZM384.952 180.21C384.952 180.769 385.387 181.267 386.009 181.267C386.569 181.267 387.066 180.832 387.066 180.21C387.066 179.65 386.631 179.153 386.009 179.153C385.387 179.153 384.952 179.65 384.952 180.21ZM378.734 183.069C379.418 183.753 380.537 183.753 381.221 183.069C381.905 182.386 381.905 181.267 381.221 180.583C380.537 179.899 379.418 179.899 378.734 180.583C378.05 181.267 378.05 182.386 378.734 183.069ZM378.361 188.851C378.921 188.851 379.418 188.415 379.418 187.794C379.418 187.234 378.983 186.737 378.361 186.737C377.802 186.737 377.304 187.172 377.304 187.794C377.304 188.415 377.802 188.851 378.361 188.851ZM381.221 192.58C380.537 191.897 379.418 191.897 378.734 192.58C378.05 193.264 378.05 194.383 378.734 195.067C379.418 195.751 380.537 195.751 381.221 195.067C381.905 194.383 381.905 193.264 381.221 192.58ZM387.004 195.44C387.004 194.88 386.569 194.383 385.947 194.383C385.387 194.383 384.89 194.88 384.89 195.44C384.89 195.999 385.325 196.497 385.947 196.497C386.569 196.497 387.004 195.999 387.004 195.44ZM390.673 187.856C390.673 185.245 388.559 183.132 385.947 183.132C383.336 183.132 381.221 185.245 381.221 187.856C381.221 190.467 383.336 192.58 385.947 192.58C388.559 192.518 390.673 190.405 390.673 187.856ZM393.222 192.58C392.538 191.897 391.419 191.897 390.735 192.58C390.051 193.264 390.051 194.383 390.735 195.067C391.419 195.751 392.538 195.751 393.222 195.067C393.906 194.383 393.906 193.264 393.222 192.58ZM394.652 187.856C394.652 187.297 394.217 186.799 393.595 186.799C393.036 186.799 392.538 187.234 392.538 187.856C392.538 188.415 392.973 188.913 393.595 188.913C394.217 188.913 394.652 188.415 394.652 187.856Z" fill="#DAD1D1"/>
<path d="M414.674 187.856C414.674 203.708 401.803 216.513 385.947 216.513C370.091 216.513 357.282 203.645 357.282 187.794C357.282 171.942 370.153 159.137 386.009 159.137C401.865 159.137 414.674 172.004 414.674 187.856ZM404.228 177.288C404.974 178.594 406.839 178.905 408.332 178.034C409.824 177.164 410.446 175.423 409.7 174.118C408.953 172.813 407.088 172.502 405.596 173.372C404.103 174.242 403.482 176.045 404.228 177.288ZM386.009 168.088C375.128 168.088 366.298 176.915 366.298 187.794C366.298 198.672 375.128 207.499 386.009 207.562C396.891 207.562 405.72 198.735 405.72 187.856C405.72 176.978 396.891 168.15 386.009 168.088ZM396.518 169.58C397.823 170.326 399.564 169.704 400.435 168.213C401.305 166.721 400.994 164.856 399.689 164.11C398.383 163.364 396.642 163.985 395.771 165.477C394.901 167.031 395.212 168.834 396.518 169.58ZM383.273 163.613C383.273 165.353 384.517 166.783 386.009 166.783C387.502 166.783 388.745 165.353 388.745 163.613C388.745 161.872 387.502 160.442 386.009 160.442C384.517 160.442 383.273 161.872 383.273 163.613ZM371.521 168.213C372.392 169.704 374.133 170.326 375.439 169.58C376.745 168.834 377.055 167.031 376.185 165.477C375.314 163.985 373.573 163.364 372.268 164.11C371.024 164.856 370.651 166.658 371.521 168.213ZM363.625 178.034C365.117 178.905 366.982 178.594 367.728 177.288C368.475 175.983 367.853 174.242 366.361 173.372C364.868 172.502 363.003 172.813 362.257 174.118C361.511 175.423 362.132 177.164 363.625 178.034ZM361.759 190.529C363.5 190.529 364.93 189.348 364.93 187.794C364.93 186.302 363.5 185.059 361.759 185.059C360.018 185.059 358.588 186.24 358.588 187.794C358.588 189.286 360.018 190.529 361.759 190.529ZM367.728 198.362C366.982 197.056 365.117 196.745 363.625 197.616C362.07 198.486 361.511 200.226 362.257 201.532C363.003 202.837 364.868 203.148 366.361 202.278C367.853 201.408 368.475 199.667 367.728 198.362ZM375.439 206.07C374.133 205.324 372.392 205.945 371.521 207.437C370.651 208.929 370.962 210.794 372.268 211.54C373.573 212.286 375.314 211.664 376.185 210.172C377.055 208.618 376.745 206.816 375.439 206.07ZM388.683 212.037C388.683 210.297 387.502 208.867 385.947 208.867C384.455 208.867 383.211 210.297 383.211 212.037C383.211 213.778 384.455 215.208 385.947 215.208C387.439 215.208 388.683 213.778 388.683 212.037ZM400.435 207.437C399.564 205.945 397.823 205.324 396.518 206.07C395.212 206.816 394.901 208.681 395.771 210.172C396.642 211.664 398.383 212.286 399.689 211.54C400.932 210.794 401.305 208.991 400.435 207.437ZM408.332 197.616C406.839 196.745 404.974 197.056 404.228 198.362C403.482 199.667 404.103 201.408 405.596 202.278C407.088 203.148 408.953 202.837 409.7 201.532C410.446 200.226 409.824 198.486 408.332 197.616ZM413.368 187.856C413.368 186.364 411.938 185.121 410.197 185.121C408.456 185.121 407.026 186.364 407.026 187.856C407.026 189.348 408.456 190.591 410.197 190.591C411.938 190.591 413.368 189.348 413.368 187.856Z" fill="#DAD1D1"/>
<path d="M31.96 184.437H10.3837C4.6632 184.437 0.0619507 179.775 0.0619507 174.118V173.932C0.0619507 168.213 4.72538 163.613 10.3837 163.613H31.96V184.437Z" fill="#DAD1D1"/>
<path d="M475.797 184.437H454.221V163.488H475.797C481.517 163.488 486.119 168.15 486.119 173.807V174.056C486.181 179.775 481.517 184.437 475.797 184.437Z" fill="#DAD1D1"/>
<path opacity="0.1" d="M496.875 233.235C496.875 238.084 388.435 242 254.687 242C120.939 242 12.4979 238.084 12.4979 233.235C12.4979 228.386 120.939 224.47 254.687 224.47C388.497 224.47 496.875 228.386 496.875 233.235Z" fill="white"/>
<path d="M146.121 96.6633C144.256 101.512 140.09 98.0309 142.018 93.9903L148.111 81.7443L150.163 87.8984L146.121 96.6633Z" fill="#6E4F0E"/>
<path d="M154.951 100.455C151.842 100.455 149.231 98.1552 148.857 95.047L146.743 76.6468C145.997 69.3116 152.153 68.3792 152.153 68.3792L154.951 100.455Z" fill="#D69943"/>
</svg>
